<svg width="182" height="24" viewBox="0 0 182 24" fill="none" xmlns="http://www.w3.org/2000/svg">
<path d="M26.4633 11.6976V18.6306C26.4633 21.5808 24.008 23.9705 20.9767 23.9705H11.034C9.79113 23.9705 8.82111 22.9969 8.82111 21.8168C8.82111 20.6073 9.82144 19.6632 11.034 19.6632H19.7945C21.0373 19.6632 22.0073 18.6896 22.0073 17.5095V11.5796C22.0073 10.9011 21.6739 10.252 21.1282 9.83897L15.1262 5.44315C14.0047 4.61709 12.4284 4.61709 11.3068 5.44315L5.39573 9.77997C4.78947 10.2225 4.42571 10.9306 4.42571 11.6976V21.8463C4.42571 23.0559 3.42538 24 2.21286 24C0.970018 24 0 23.0264 0 21.8463V11.9041C0 9.66195 1.09127 7.56731 2.91006 6.23971L4.45603 5.11862L9.54863 1.40136L10.0943 1.01782C11.9737 -0.339275 14.5503 -0.339275 16.4297 1.01782L16.9753 1.40136L22.0679 5.14813L23.7352 6.38722C25.4327 7.59681 26.4633 9.60295 26.4633 11.6976Z" fill="#F4683F"/>
<path d="M13.2461 18.0102C12.0033 18.0102 10.9727 17.0071 10.9727 15.7975V13.1423C10.9727 11.9328 12.0033 10.9297 13.2461 10.9297C14.489 10.9297 15.5196 11.9328 15.5196 13.1423V15.7975C15.5196 17.0366 14.489 18.0102 13.2461 18.0102Z" fill="white"/>
<path d="M149.169 19.3694C150.056 19.3694 150.776 18.6694 150.776 17.8058C150.776 16.9422 150.056 16.2422 149.169 16.2422C148.282 16.2422 147.562 16.9422 147.562 17.8058C147.562 18.6694 148.282 19.3694 149.169 19.3694Z" fill="white"/>
<path fill-rule="evenodd" clip-rule="evenodd" d="M122.221 14.5004V6.38732C122.221 5.41375 123.039 4.61719 124.039 4.61719C124.555 4.61719 125.009 4.8237 125.343 5.14822C125.676 5.47275 125.888 5.91528 125.888 6.41682V11.1372V13.2908V13.8809C125.979 15.9165 127.162 16.8016 128.586 16.8016C130.011 16.8016 131.163 15.946 131.284 13.9694V13.2023V11.1372V6.41682C131.284 5.44325 132.103 4.64669 133.103 4.64669C133.618 4.64669 134.073 4.8532 134.406 5.17773C134.74 5.50225 134.952 5.94478 134.952 6.44632V14.5594V14.7954C134.952 17.1851 132.103 19.4273 128.586 19.4273C125.161 19.4273 122.342 17.2736 122.251 14.9429L122.221 14.5004ZM119.341 4.91221H109.338C108.671 4.91221 108.125 5.44325 108.125 6.0923C108.125 6.74134 108.671 7.27238 109.338 7.27238H112.52V17.5686C112.52 18.5422 113.339 19.3388 114.339 19.3388C115.34 19.3388 116.158 18.5422 116.158 17.5686V7.27238H119.341C120.008 7.27238 120.553 6.74134 120.553 6.0923C120.553 5.44325 120.008 4.91221 119.341 4.91221ZM147.532 4.91221H137.529C136.862 4.91221 136.316 5.44325 136.316 6.0923C136.316 6.74134 136.862 7.27238 137.529 7.27238H140.712V17.5686C140.712 18.5422 141.53 19.3388 142.53 19.3388C143.531 19.3388 144.349 18.5422 144.349 17.5686V7.27238H147.532C148.199 7.27238 148.745 6.74134 148.745 6.0923C148.745 5.44325 148.199 4.91221 147.532 4.91221ZM166.417 8.42296C166.417 10.0456 165.144 11.4027 163.416 11.8157C166.629 12.3468 166.447 15.12 166.417 15.12V17.5686C166.417 18.5422 165.599 19.3388 164.598 19.3388C163.598 19.3388 162.78 18.5422 162.78 17.5686V15.12C162.78 15.12 162.992 13.1433 160.294 13.1433H157.99V17.5686C157.99 18.5422 157.172 19.3388 156.171 19.3388C155.171 19.3388 154.352 18.5422 154.352 17.5686V6.68234C154.352 5.70877 155.171 4.91221 156.171 4.91221H162.385C162.719 4.91221 163.083 4.94171 163.416 5.03022C165.144 5.44325 166.417 6.80035 166.417 8.42296ZM157.99 11.1077H159.809H160.87C161.991 11.1077 162.961 10.3406 163.083 9.24902V9.04251C163.083 8.895 163.083 8.77699 163.052 8.62948C162.84 7.62641 161.9 6.94786 160.87 6.94786H158.687H157.99V11.1077ZM169.267 6.38732V14.5004L169.297 14.9429C169.388 17.2736 172.207 19.4273 175.633 19.4273C179.149 19.4273 181.998 17.1851 181.998 14.7954V14.5594V6.44632C181.998 5.94478 181.786 5.50225 181.453 5.17773C181.119 4.8532 180.665 4.64669 180.149 4.64669C179.149 4.64669 178.33 5.44325 178.33 6.41682V11.1372V13.2023V13.9694C178.209 15.946 177.057 16.8016 175.633 16.8016C174.208 16.8016 173.026 15.9165 172.935 13.8809V13.2908V11.1372V6.41682C172.935 5.91528 172.723 5.47275 172.389 5.14822C172.056 4.8237 171.601 4.61719 171.086 4.61719C170.085 4.61719 169.267 5.41375 169.267 6.38732Z" fill="#F4683F"/>
<path fill-rule="evenodd" clip-rule="evenodd" d="M61.5968 7.32963C60.748 6.14955 59.4446 5.26449 57.9289 4.91046C57.262 4.70395 56.3223 4.58594 55.322 4.58594C54.3216 4.58594 53.4123 4.70395 52.7151 4.91046C51.1994 5.26449 49.9262 6.14955 49.0472 7.32963C48.3197 8.30321 47.9256 9.5128 47.9256 10.8404V13.1121C47.9256 14.4102 48.35 15.6197 49.0472 16.6228C49.8656 17.7734 51.0781 18.5995 52.5029 18.983C53.2001 19.219 54.2004 19.396 55.322 19.396C56.4436 19.396 57.4439 19.2485 58.1411 18.983C59.5658 18.5995 60.7783 17.7439 61.5968 16.6228C62.3243 15.6197 62.7487 14.4397 62.7487 13.1121V10.8404C62.7487 9.5128 62.3243 8.30321 61.5968 7.32963ZM58.808 10.5749V13.3186C58.808 14.2036 58.4745 15.0297 57.9592 15.6788L57.7773 15.8558C56.4739 17.2424 54.2004 17.2424 52.8969 15.8558L52.7151 15.6788C52.1694 15.0297 51.8663 14.2036 51.8663 13.3186V10.5749C51.8663 9.68981 52.1997 8.86375 52.7151 8.2147C52.7151 8.2147 52.715 8.1852 52.7454 8.1852C54.0791 6.59209 56.5951 6.59209 57.9289 8.1852C57.9289 8.1852 57.9289 8.2147 57.9592 8.2147C58.4745 8.86375 58.808 9.68981 58.808 10.5749ZM32.4961 6.56256V17.6849C32.4961 18.5994 33.2539 19.337 34.1936 19.337H39.8925C43.3482 19.337 46.1673 16.6228 46.1673 13.23V10.9584C46.1673 7.59513 43.3785 4.85143 39.8925 4.85143H34.1936C33.2539 4.91043 32.4961 5.64799 32.4961 6.56256ZM38.3162 17.2718H36.1337V6.97559H38.3162C40.4684 6.97559 42.1963 8.65721 42.1963 10.7519V13.4956C42.1963 15.5902 40.4684 17.2718 38.3162 17.2718ZM88.8483 19.337C87.8479 19.337 87.0295 18.5405 87.0295 17.5669V6.68062C87.0295 5.70705 87.8479 4.91049 88.8483 4.91049C89.8486 4.91049 90.6671 5.70705 90.6671 6.68062V17.5669C90.6671 18.57 89.8486 19.337 88.8483 19.337ZM101.489 11.873L105.733 16.9179C106.248 17.5669 106.218 18.4815 105.581 19.0125C104.945 19.5436 103.975 19.4551 103.429 18.806L99.064 13.6136L98.0334 12.4335V17.5669C98.0334 18.5405 97.2149 19.337 96.2146 19.337C95.2143 19.337 94.3958 18.5405 94.3958 17.5669V6.68062C94.3958 5.70705 95.2143 4.91049 96.2146 4.91049C97.2149 4.91049 98.0334 5.70705 98.0334 6.68062V11.342L98.7912 10.4274L102.823 5.47103C103.338 4.82198 104.308 4.73348 104.975 5.23502C105.642 5.73655 105.733 6.68061 105.218 7.32966L101.489 11.873ZM83.3919 6.91663V7.03464V7.21165V18.0094C83.3919 18.747 82.7856 19.337 82.0278 19.337C81.27 19.337 80.6637 18.747 80.6637 18.0094V8.98178V8.00822L80.3303 8.80477L80.3 8.86378L76.4805 17.3309C76.4805 17.3604 76.4502 17.4194 76.4199 17.4489C76.1168 18.157 75.3286 18.6585 74.4495 18.5995C73.7826 18.57 73.1764 18.216 72.8429 17.7144L72.8429 17.7144C72.752 17.5964 72.661 17.4784 72.6004 17.3309L68.781 8.86378L68.7507 8.80477L68.4172 8.00822V8.98178V18.0094C68.4172 18.747 67.811 19.337 67.0531 19.337C66.2953 19.337 65.689 18.747 65.689 18.0094V7.21165C65.689 7.16293 65.6982 7.12315 65.7065 7.08739C65.7132 7.05819 65.7194 7.03167 65.7194 7.00514C65.689 6.97564 65.689 6.94614 65.689 6.91663C65.6284 5.88406 66.6894 4.999 68.0535 4.91049H68.0838H68.3263H68.4475H68.5385C69.0235 4.93999 69.4479 5.0875 69.8116 5.29401C70.236 5.53003 70.5088 5.82506 70.721 6.20858V6.23809C70.721 6.25284 70.7286 6.26759 70.7362 6.28234C70.7438 6.29709 70.7513 6.31184 70.7513 6.32659L74.4495 14.7937L74.5405 14.9707L74.6314 14.7937L78.3296 6.32659C78.3296 6.29709 78.3296 6.26759 78.3599 6.23809V6.20858C78.5721 5.82506 78.8449 5.50053 79.2693 5.29401C79.6331 5.0875 80.0575 4.93999 80.5425 4.91049H80.6334H80.7547H80.9972H81.0275C82.3916 4.999 83.4525 5.88406 83.3919 6.91663Z" fill="white"/>
</svg>
